<?xml version="1.0" standalone="no"?>
<!DOCTYPE svg PUBLIC "-//W3C//DTD SVG 20010904//EN"
 "http://www.w3.org/TR/2001/REC-SVG-20010904/DTD/svg10.dtd">
<svg version="1.0" xmlns="http://www.w3.org/2000/svg"
 width="397.000000pt" height="397.000000pt" viewBox="0 0 397.000000 397.000000"
 preserveAspectRatio="xMidYMid meet">
<metadata>
Created by potrace 1.14, written by Peter Selinger 2001-2017
</metadata>
<g transform="translate(0.000000,397.000000) scale(0.100000,-0.100000)"
fill="#000000" stroke="none">
<path d="M1805 3954 c-118 -11 -364 -58 -397 -75 -9 -5 -28 -9 -42 -9 -14 0
-26 -4 -26 -10 0 -5 -6 -10 -12 -10 -39 0 -302 -131 -435 -216 -704 -452
-1042 -1329 -827 -2144 116 -440 371 -819 738 -1095 40 -30 78 -55 84 -55 6 0
53 -25 104 -57 51 -31 133 -73 183 -93 132 -54 145 -62 145 -78 0 -9 3 -13 6
-9 3 3 18 1 33 -5 14 -5 35 -12 46 -14 64 -12 81 -17 94 -27 7 -6 18 -12 25
-14 6 -1 29 -9 51 -17 33 -12 103 -14 395 -12 347 3 422 8 448 29 7 5 24 11
37 11 14 1 30 9 37 17 15 19 184 73 198 64 5 -3 10 -2 10 3 0 10 65 42 87 42
9 0 59 23 111 50 533 286 894 762 1022 1350 38 174 53 377 40 530 -24 278 -89
519 -200 746 -213 432 -544 747 -1001 952 -116 52 -221 83 -394 116 -211 39
-369 48 -560 30z"/>
</g>
</svg>
